<svg width="24" height="24" viewBox="0 0 24 24" fill="none" xmlns="http://www.w3.org/2000/svg">
<rect width="24" height="24" fill="#E5E5E5"/>
<g id="UI">
<path d="M-116 -132C-116 -140.837 -108.837 -148 -100 -148H60C68.8366 -148 76 -140.837 76 -132V220C76 228.837 68.8365 236 60 236H-100C-108.837 236 -116 228.837 -116 220V-132Z" fill="white"/>
<g id="Search_alt_duotone_line">
<circle id="Ellipse 65" cx="11" cy="11" r="6" fill="#7E869E" fill-opacity="0.25" stroke="#222222" stroke-width="1.2"/>
<path id="Ellipse 66" d="M11 8C10.606 8 10.2159 8.0776 9.85195 8.22836C9.48797 8.37913 9.15726 8.6001 8.87868 8.87868C8.6001 9.15726 8.37913 9.48797 8.22836 9.85195C8.0776 10.2159 8 10.606 8 11" stroke="#222222" stroke-width="1.2" stroke-linecap="round"/>
<path id="Vector 109" d="M20 20L17 17" stroke="#222222" stroke-width="1.2" stroke-linecap="round"/>
</g>
</g>
</svg>
